<svg width="1440" height="1594" viewBox="0 0 1440 1594" fill="none" xmlns="http://www.w3.org/2000/svg">
<g clip-path="url(#clip0_122_32)">
<path d="M378 435C543.685 435 678 300.685 678 135C678 -30.6854 543.685 -165 378 -165C212.315 -165 78 -30.6854 78 135C78 300.685 212.315 435 378 435Z" fill="#136EF1"/>
<path d="M630 999C702.349 999 761 940.349 761 868C761 795.651 702.349 737 630 737C557.651 737 499 795.651 499 868C499 940.349 557.651 999 630 999Z" fill="#136EF1"/>
<path d="M938 1594C1054.53 1594 1149 1499.53 1149 1383C1149 1266.47 1054.53 1172 938 1172C821.468 1172 727 1266.47 727 1383C727 1499.53 821.468 1594 938 1594Z" fill="#136EF1"/>
<path d="M1228 795C1322.44 795 1399 718.441 1399 624C1399 529.559 1322.44 453 1228 453C1133.56 453 1057 529.559 1057 624C1057 718.441 1133.56 795 1228 795Z" fill="#136EF1"/>
</g>
<defs>
<clipPath id="clip0_122_32">
<rect width="1440" height="1594" fill="white"/>
</clipPath>
</defs>
</svg>
